<?xml version="1.0"?>
<svg width="381.00076" height="263.21124" xmlns="http://www.w3.org/2000/svg" xmlns:svg="http://www.w3.org/2000/svg" version="1.1" xml:space="preserve">
 <metadata id="metadata8">image/svg+xml</metadata>
 <defs id="defs6">
  <clipPath clipPathUnits="userSpaceOnUse" id="clipPath16">
   <path d="m0,792l612,0l0,-792l-612,0l0,792z" id="path18"/>
  </clipPath>
  <clipPath clipPathUnits="userSpaceOnUse" id="clipPath108">
   <path d="m0,792l612,0l0,-792l-612,0l0,792z" id="path110"/>
  </clipPath>
  <clipPath clipPathUnits="userSpaceOnUse" id="clipPath122">
   <path d="m0,792l612,0l0,-792l-612,0l0,792z" id="path124"/>
  </clipPath>
  <clipPath clipPathUnits="userSpaceOnUse" id="clipPath136">
   <path d="m0,792l612,0l0,-792l-612,0l0,792z" id="path138"/>
  </clipPath>
  <clipPath clipPathUnits="userSpaceOnUse" id="clipPath230">
   <path d="m0,792l612,0l0,-792l-612,0l0,792z" id="path232"/>
  </clipPath>
 </defs>
 <g class="layer">
  <title>Layer 1</title>
  <g id="g10" transform="matrix(1.37249 0 0 -1.44093 -25.4442 1119.57)">
   <g clip-path="url(#clipPath16)" id="g14" transform="translate(-91.7482 24.8809)">
    <g id="g20" transform="translate(188.584 663.58)">
     <path d="m0,0l21.71,0.01c1.24,0 2.24,1.21 2.24,2.7c0,1.5 -1,2.71 -2.24,2.71l-21.71,0c-4.21,0 -7.63,-4.13 -7.63,-9.24c0,-5.1 3.42,-9.23 7.63,-9.23l21.71,0c1.24,0 2.24,1.21 2.24,2.7c0,1.5 -1,2.71 -2.24,2.71l-21.71,0c-1.74,0 -2.96,1.71 -2.96,3.82c0,2.11 1.22,3.82 2.96,3.82" fill="#155196" fill-rule="nonzero" id="path22"/>
    </g>
    <g id="g24" transform="translate(320.343 660.173)">
     <path d="m0,0l-19.07,0l-0.01,3.4l19.08,0c0.77,0 1.4,-0.77 1.4,-1.7c0,-0.94 -0.63,-1.7 -1.4,-1.7m5.64,2.3c0,3.6 -2.41,6.53 -5.39,6.53l-21.56,0c-1.17,0 -2.23,-1.13 -2.23,-2.33l0,-13.41c0,-1.51 0.97,-2.74 2.22,-2.74c1.24,0 2.26,1.23 2.26,2.74l0,1.48l18.56,0c5.64,0 6.14,5.66 6.14,7.73" fill="#155196" fill-rule="nonzero" id="path26"/>
    </g>
    <g id="g28" transform="translate(246.193 666.194)">
     <path d="m0,0c0,1.51 -0.95,2.73 -2.2,2.73c-1.24,0 -2.26,-1.22 -2.26,-2.73l0,-3.09l-21.48,0l0,3.09c0,1.51 -0.95,2.73 -2.2,2.73c-1.25,0 -2.26,-1.22 -2.26,-2.73l0,-12.86c0,-1.52 0.95,-2.74 2.2,-2.74c1.25,0 2.26,1.22 2.26,2.74l0,4.38l21.48,0l0,-4.38c0,-1.52 0.95,-2.74 2.2,-2.74c1.25,0 2.26,1.22 2.26,2.74l0,12.86z" fill="#155196" fill-rule="nonzero" id="path30"/>
    </g>
    <g id="g32" transform="translate(384.825 655.989)">
     <path d="m0,0l-16.57,0l0,10.2c0,1.52 -0.95,2.74 -2.2,2.74c-1.25,0 -2.25,-1.22 -2.25,-2.74l0,-12.85c0,-1.52 0.95,-2.74 2.19,-2.74l18.83,0c1.25,0 2.26,1.15 2.26,2.65c0,1.51 -1.01,2.74 -2.26,2.74" fill="#155196" fill-rule="nonzero" id="path34"/>
    </g>
    <g id="g36" transform="translate(269.773 663.229)">
     <path d="m0,0c0.72,0.51 1.52,0.65 2.39,0.07l5.74,-3.99l-13.8,0l5.67,3.92zm-18.9,-12.65c0.64,0 1.23,0.23 1.69,0.61l5.81,4.05l25.26,0l5.8,-4.07c0.46,-0.37 1.04,-0.59 1.66,-0.59c1.46,0 2.64,1.19 2.64,2.65c0,0.87 -0.42,1.64 -1.07,2.13l-18.54,12.88c-1.16,0.94 -4.21,1.23 -6.24,-0.07l-18.65,-12.87c-0.61,-0.48 -1,-1.23 -1,-2.07c0,-1.46 1.18,-2.65 2.64,-2.65" fill="#155196" fill-rule="nonzero" id="path38"/>
    </g>
    <g id="g40" transform="translate(357.469 655.633)">
     <path d="m0,0l-23.5,0l0,2.06l19.68,0c1.18,0 2.13,0.95 2.13,2.12c0,1.17 -0.95,2.13 -2.13,2.13l-19.68,0l0,2.05l23.5,0c1.17,0 2.12,1.36 2.12,2.53c0,1.17 -0.95,2.52 -2.12,2.52l-26.08,0c-0.92,0 -1.66,-0.74 -1.66,-1.66l0,-14.68c0,-1.17 0.95,-2.12 2.12,-2.12l25.62,0c1.17,0 2.12,1.35 2.12,2.53c0,1.17 -0.95,2.52 -2.12,2.52" fill="#155196" fill-rule="nonzero" id="path42"/>
    </g>
    <g id="g44" transform="translate(319.292 595.861)"/>
    <g id="g60" transform="translate(201.31 743.763)">
     <path d="m0,0c-8.9,0 -17.95,-1.49 -26.84,-4.62c-18.34,-6.47 -32.82,-18.89 -42.16,-34.33l7.53,-4.27c8.28,13.6 21.11,24.57 37.3,30.27c7.87,2.78 15.91,4.1 23.82,4.1l0,0l0.02,0l0.01,0c8.96,0 17.73,-1.7 25.91,-4.89l3.55,8.26c-9.2,3.57 -19.08,5.48 -29.14,5.48" fill="#80cc28" fill-rule="nonzero" id="path62"/>
    </g>
    <g id="g64" transform="translate(233.905 726.096)">
     <path d="m0,0l-0.58,-1.37l-2.56,1.1c-8.91,3.83 -18.59,5.88 -28.49,5.88c-7.96,0 -16.04,-1.32 -23.98,-4.12c-17.18,-6.07 -30.61,-17.96 -38.88,-32.69l-1.36,-2.44l-1.24,0.71c-4.98,-9.87 -7.79,-21.01 -7.79,-32.83c0,-15.66 4.93,-30.17 13.33,-42.07c8.09,-11.47 19.41,-20.49 32.63,-25.77c0,0 12.37,-5.04 27.3,-5.04c7.96,0 16.05,1.33 23.99,4.13c12.61,4.45 23.17,12.04 31.18,21.58l-7.53,5.96c-11.65,-13.47 -28.87,-22.01 -48.08,-22.01c-35.07,0 -63.51,28.43 -63.51,63.51c0,35.08 28.44,63.51 63.51,63.51c19,0 36.05,-8.35 47.68,-21.57l7.18,6.26c-6.36,7.16 -14.1,13.05 -22.8,17.27" fill="#80cc28" fill-rule="nonzero" id="path66"/>
    </g>
    <g id="g68" transform="translate(277.182 614.193)">
     <path d="m0,0c-10.12,-16.83 -25.92,-30.41 -45.89,-37.45c-9.63,-3.4 -19.46,-5.01 -29.13,-5.01c-10.48,0 -20.76,1.89 -30.39,5.46l-2.44,0.91l3.68,9.98c-28.96,11.43 -49.46,39.66 -49.46,72.69c0,12.62 3.01,24.55 8.33,35.12l-7.34,4.15l1.28,2.27c10.03,17.86 26.36,32.3 47.19,39.64c9.63,3.4 19.46,5.02 29.14,5.02c11.88,0 23.51,-2.44 34.22,-6.99l2.41,-1.02l-3.32,-7.73c11.84,-5.69 22.02,-14.26 29.64,-24.82l10.62,7.1c-16.52,22.89 -43.38,37.79 -73.75,37.79c-25.1,0 -47.81,-10.17 -64.27,-26.62c-16.45,-16.46 -26.61,-39.16 -26.62,-64.26c0.01,-25.11 10.17,-47.82 26.62,-64.27c16.46,-16.45 39.17,-26.62 64.27,-26.62c32.8,0 61.51,17.38 77.5,43.42l-2.29,1.24z" fill="#80cc28" fill-rule="nonzero" id="path70"/>
    </g>
    <g id="g72" transform="translate(227.219 588.16)">
     <path d="m0,0l0,0c-8.21,-2.9 -16.59,-4.27 -24.83,-4.27c-7.89,0 -15.62,1.28 -22.97,3.67l-3.32,-8.96c8.52,-2.85 17.5,-4.38 26.65,-4.38c9.28,0 18.72,1.54 27.97,4.81c22.09,7.8 38.86,23.87 48.1,43.51l-9.13,3.76c-8.24,-17.21 -23.05,-31.29 -42.47,-38.14" fill="#80cc28" fill-rule="nonzero" id="path74"/>
    </g>
    <g id="g76" transform="translate(192.193 704.477)">
     <path d="m0,0l0.01,-0.09l-0.01,0.09z" fill="#00a5dd" fill-rule="nonzero" id="path78"/>
    </g>
    <g id="g80" transform="translate(202.439 708.383)">
     <path d="m0,0c15.82,0 29.85,-7.62 38.67,-19.36l5.72,4.1c-10.11,13.39 -26.14,22.05 -44.21,22.05c-1.35,0 -2.68,-0.06 -4,-0.16l0,-6.8c1.26,0.1 2.53,0.17 3.82,0.17" fill="#00a5dd" fill-rule="nonzero" id="path82"/>
    </g>
    <g id="g84" transform="translate(198.977 605.961)">
     <path d="m0,0c1.33,-0.08 2.66,-0.12 4,-0.1c16.86,0.29 31.81,8.1 41.77,20.16l-5.72,4.5c-8.7,-10.43 -21.7,-17.18 -36.35,-17.43c-1.29,-0.03 -2.56,0.02 -3.82,0.1l0.12,-7.23z" fill="#00a5dd" fill-rule="nonzero" id="path86"/>
    </g>
    <g id="g88" transform="translate(250.154 693.428)">
     <path d="m0,0l1.8,-2.51l-3.95,-2.83c0.44,-0.72 0.86,-1.45 1.26,-2.19l6.49,3.01c-10.2,19 -30.24,31.92 -53.31,31.92c-16.71,0 -31.82,-6.77 -42.77,-17.72c-10.95,-10.95 -17.72,-26.06 -17.72,-42.77c0,-16.71 6.77,-31.81 17.72,-42.77c10.95,-10.95 26.06,-17.71 42.77,-17.71c21.59,0 40.52,11.31 51.23,28.34l-6.33,3.77c-0.31,-0.49 -0.63,-0.97 -0.95,-1.44l3.52,-2.87l-1.95,-2.4c-10.94,-13.45 -27.65,-22.06 -46.33,-22.08l-0.02,0l-0.05,0l0,0c-1.9,0 -3.77,0.1 -5.61,0.27l0.01,0l-2.81,0.27l0,4.24c-12.33,2.12 -23.22,8.45 -31.12,17.47c-8.21,9.38 -13.2,21.69 -13.2,35.15c0,13.46 4.99,25.77 13.2,35.15c7.9,9.03 18.79,15.35 31.12,17.47l0,4.65l2.8,0.26c1.84,0.18 3.71,0.27 5.61,0.27c20.02,0 37.74,-9.85 48.59,-24.95" fill="#00a5dd" fill-rule="nonzero" id="path90"/>
    </g>
    <g id="g92" transform="translate(224.104 622.801)">
     <path d="m0,0l-0.01,-0.01l-0.01,-0.01l0.02,0.02z" fill="#00a5dd" fill-rule="nonzero" id="path94"/>
    </g>
    <g id="g96" transform="translate(226.568 629.32)">
     <path d="m0,0c-6.53,-4.88 -14.63,-7.79 -23.4,-7.79c-21.62,0 -39.13,17.52 -39.14,39.14c0.01,21.61 17.52,39.14 39.14,39.14c7.05,0 13.67,-1.89 19.39,-5.16l3.35,2.5c-6.57,4.06 -14.3,6.42 -22.6,6.42c-11.9,0 -22.65,-4.82 -30.45,-12.62c-7.8,-7.8 -12.61,-18.55 -12.62,-30.45c0,-6.22 1.35,-12.11 3.72,-17.44l-4.02,-2.11c0.44,-1.01 0.9,-2.02 1.42,-3.01c6.53,-12.46 17.95,-20.67 30.66,-23.56l0.89,4.37c3.34,-0.83 6.81,-1.32 10.4,-1.32c5.9,0 11.51,1.19 16.62,3.33c0.65,0.27 1.29,0.57 1.94,0.88l0.18,0.09l0.01,0l0,0.01c0.69,0.33 1.36,0.68 2.02,1.05l0.01,0l0.16,0.09c0.69,0.38 1.35,0.78 2,1.18l0.01,0.01l0.02,0.01l0.11,0.07c0.54,0.34 1.08,0.7 1.6,1.06c0.46,0.33 0.92,0.67 1.36,1.01l-2.78,3.1z" fill="#00a5dd" fill-rule="nonzero" id="path98"/>
    </g>
   </g>
  </g>
 </g>
</svg>